<mxfile>
    <diagram id="z4ea6JTPt-Vu6G4jc7sS" name="Page-1">
        <mxGraphModel dx="2201" dy="790" grid="1" gridSize="10" guides="1" tooltips="1" connect="1" arrows="1" fold="1" page="1" pageScale="1" pageWidth="827" pageHeight="1169" math="0" shadow="0">
            <root>
                <mxCell id="0"/>
                <mxCell id="1" parent="0"/>
                <mxCell id="15" style="edgeStyle=orthogonalEdgeStyle;rounded=0;orthogonalLoop=1;jettySize=auto;html=1;entryX=0.5;entryY=0;entryDx=0;entryDy=0;fontSize=12;" edge="1" parent="1" source="2" target="13">
                    <mxGeometry relative="1" as="geometry"/>
                </mxCell>
                <mxCell id="2" value="配置文件&lt;br style=&quot;font-size: 12px;&quot;&gt;主配置文件：mybatisConfig.xml&lt;br style=&quot;font-size: 12px;&quot;&gt;mapper配置文件" style="rounded=0;whiteSpace=wrap;html=1;fontSize=12;" vertex="1" parent="1">
                    <mxGeometry x="240" y="70" width="230" height="60" as="geometry"/>
                </mxCell>
                <mxCell id="23" value="build()" style="edgeStyle=orthogonalEdgeStyle;rounded=0;orthogonalLoop=1;jettySize=auto;html=1;entryX=0.5;entryY=0;entryDx=0;entryDy=0;fontSize=12;" edge="1" parent="1" source="9" target="22">
                    <mxGeometry relative="1" as="geometry"/>
                </mxCell>
                <mxCell id="57" style="edgeStyle=orthogonalEdgeStyle;rounded=0;orthogonalLoop=1;jettySize=auto;html=1;exitX=1;exitY=0.5;exitDx=0;exitDy=0;entryX=0;entryY=0.5;entryDx=0;entryDy=0;fontSize=12;" edge="1" parent="1" source="9" target="24">
                    <mxGeometry relative="1" as="geometry"/>
                </mxCell>
                <mxCell id="9" value="&lt;span&gt;SqlSessionFactoryBuilder：通过build()解析配置文件，得到Configuration对象，创建SqlSessionFactory&lt;/span&gt;" style="rounded=0;whiteSpace=wrap;html=1;" vertex="1" parent="1">
                    <mxGeometry y="280" width="710" height="40" as="geometry"/>
                </mxCell>
                <mxCell id="21" style="edgeStyle=orthogonalEdgeStyle;rounded=0;orthogonalLoop=1;jettySize=auto;html=1;exitX=0.5;exitY=1;exitDx=0;exitDy=0;entryX=0.5;entryY=0;entryDx=0;entryDy=0;fontSize=12;" edge="1" parent="1" source="13" target="9">
                    <mxGeometry relative="1" as="geometry"/>
                </mxCell>
                <mxCell id="13" value="配置文件加载解析为文件流&lt;br&gt;InputStream resourceAsStream = Resources.getResourceAsStream(&quot;mybatisConfig.xml&quot;);" style="rounded=0;whiteSpace=wrap;html=1;fontSize=12;" vertex="1" parent="1">
                    <mxGeometry y="170" width="710" height="70" as="geometry"/>
                </mxCell>
                <mxCell id="36" value="mapperElement()" style="edgeStyle=orthogonalEdgeStyle;rounded=0;orthogonalLoop=1;jettySize=auto;html=1;exitX=0.5;exitY=1;exitDx=0;exitDy=0;entryX=0.5;entryY=0;entryDx=0;entryDy=0;fontSize=12;" edge="1" parent="1" source="22" target="31">
                    <mxGeometry relative="1" as="geometry"/>
                </mxCell>
                <mxCell id="56" style="edgeStyle=orthogonalEdgeStyle;rounded=0;orthogonalLoop=1;jettySize=auto;html=1;exitX=0;exitY=0.5;exitDx=0;exitDy=0;entryX=0;entryY=0.5;entryDx=0;entryDy=0;fontSize=12;" edge="1" parent="1" source="22" target="37">
                    <mxGeometry relative="1" as="geometry">
                        <Array as="points">
                            <mxPoint x="-160" y="405"/>
                            <mxPoint x="-160" y="1285"/>
                        </Array>
                    </mxGeometry>
                </mxCell>
                <mxCell id="22" value="XMLConfigbuilder&lt;br&gt;1. 默认初始化Configuration&lt;br&gt;2. 解析主配置文件，设置Configuration属性&lt;br&gt;" style="rounded=0;whiteSpace=wrap;html=1;fontSize=12;" vertex="1" parent="1">
                    <mxGeometry x="115" y="370" width="480" height="70" as="geometry"/>
                </mxCell>
                <mxCell id="60" value="t通过openSession()创建SqlSession" style="edgeStyle=orthogonalEdgeStyle;rounded=0;orthogonalLoop=1;jettySize=auto;html=1;exitX=0.5;exitY=1;exitDx=0;exitDy=0;fontSize=12;entryX=0.5;entryY=0;entryDx=0;entryDy=0;" edge="1" parent="1" source="24" target="58">
                    <mxGeometry relative="1" as="geometry">
                        <mxPoint x="1301.3333333333335" y="400" as="targetPoint"/>
                        <Array as="points"/>
                    </mxGeometry>
                </mxCell>
                <mxCell id="24" value="SqlSessionFactory：sqlSession工厂&lt;br&gt;Configuration Configuration：全局配置对象" style="rounded=0;whiteSpace=wrap;html=1;fontSize=12;" vertex="1" parent="1">
                    <mxGeometry x="1100" y="265" width="403" height="70" as="geometry"/>
                </mxCell>
                <mxCell id="34" value="addMapper()" style="edgeStyle=orthogonalEdgeStyle;rounded=0;orthogonalLoop=1;jettySize=auto;html=1;exitX=0.5;exitY=1;exitDx=0;exitDy=0;entryX=0.5;entryY=0;entryDx=0;entryDy=0;fontSize=12;" edge="1" parent="1" source="31" target="32">
                    <mxGeometry relative="1" as="geometry"/>
                </mxCell>
                <mxCell id="31" value="Registry：mapper接口注册对象&lt;br&gt;Map&amp;lt;Class&amp;lt;?&amp;gt;, MapperProxyFactory&amp;lt;?&amp;gt;&amp;gt; knownMappers：存储mapper接口对应代理工厂，用于创建mapper接口代理对象" style="rounded=0;whiteSpace=wrap;html=1;fontSize=12;" vertex="1" parent="1">
                    <mxGeometry x="-60" y="500" width="830" height="65" as="geometry"/>
                </mxCell>
                <mxCell id="35" value="parseStatement()" style="edgeStyle=orthogonalEdgeStyle;rounded=0;orthogonalLoop=1;jettySize=auto;html=1;exitX=0.5;exitY=1;exitDx=0;exitDy=0;entryX=0.5;entryY=0;entryDx=0;entryDy=0;fontSize=12;" edge="1" parent="1" source="32" target="33">
                    <mxGeometry relative="1" as="geometry"/>
                </mxCell>
                <mxCell id="39" style="edgeStyle=orthogonalEdgeStyle;rounded=0;orthogonalLoop=1;jettySize=auto;html=1;fontSize=12;" edge="1" parent="1" source="32" target="38">
                    <mxGeometry relative="1" as="geometry"/>
                </mxCell>
                <mxCell id="40" value="loadXmlRsource()" style="edgeLabel;html=1;align=center;verticalAlign=middle;resizable=0;points=[];fontSize=12;" vertex="1" connectable="0" parent="39">
                    <mxGeometry x="0.0971" y="3" relative="1" as="geometry">
                        <mxPoint as="offset"/>
                    </mxGeometry>
                </mxCell>
                <mxCell id="32" value="MapperAnnotationBuilder：mapper注解解析对象&lt;br&gt;根据mapper的Class对象，对其进行解析&lt;br&gt;parseCache()：根据是否存在CacheNameSpace注解，调用MapperBuilderAssistant创建二级缓存容器" style="rounded=0;whiteSpace=wrap;html=1;fontSize=12;" vertex="1" parent="1">
                    <mxGeometry x="-58.75" y="620" width="827.5" height="80" as="geometry"/>
                </mxCell>
                <mxCell id="54" value="&lt;span style=&quot;color: rgb(255 , 198 , 109) ; font-family: &amp;#34;helvetica&amp;#34; ; font-size: 12px ; font-style: normal ; font-weight: 400 ; letter-spacing: normal ; text-align: center ; text-indent: 0px ; text-transform: none ; word-spacing: 0px ; background-color: rgb(42 , 42 , 42) ; display: inline ; float: none&quot;&gt;addMappedStatement()&lt;/span&gt;" style="edgeStyle=orthogonalEdgeStyle;rounded=0;orthogonalLoop=1;jettySize=auto;html=1;exitX=0.5;exitY=1;exitDx=0;exitDy=0;entryX=0.241;entryY=0;entryDx=0;entryDy=0;entryPerimeter=0;fontSize=12;" edge="1" parent="1" source="33" target="46">
                    <mxGeometry relative="1" as="geometry"/>
                </mxCell>
                <mxCell id="33" value="MapperBuilderAssistant：mapper解析助手&lt;br&gt;String currentNamespace：对应mapper全类名，作为namespace&lt;br&gt;Cache currentCache：二级缓存的临时引用对象&lt;br&gt;addMappedStatement()：创建MappedStatement，并添加Configuration" style="rounded=0;whiteSpace=wrap;html=1;fontSize=12;" vertex="1" parent="1">
                    <mxGeometry x="-60" y="762" width="400" height="90" as="geometry"/>
                </mxCell>
                <mxCell id="37" value="Configuration：全局配置对象&lt;br&gt;Map&amp;lt;String, MappedStatement&amp;gt; mappedStatements：存储解析后的mappedStatement，key为statementId&lt;br&gt;Map&amp;lt;String, Cache&amp;gt; caches：存储二级缓存容器，key为nameSpace&lt;br&gt;MapperRegistry mapperRegistry：存储mapper注册对象，在getMapper()中从其中获取MapperProxyFactory创建mapper代理对象" style="rounded=0;whiteSpace=wrap;html=1;fontSize=12;" vertex="1" parent="1">
                    <mxGeometry x="-60" y="1220" width="830" height="130" as="geometry"/>
                </mxCell>
                <mxCell id="43" value="&lt;span style=&quot;color: rgb(240 , 240 , 240) ; font-family: &amp;#34;helvetica&amp;#34; ; font-size: 12px ; font-style: normal ; font-weight: 400 ; letter-spacing: normal ; text-align: center ; text-indent: 0px ; text-transform: none ; word-spacing: 0px ; background-color: rgb(42 , 42 , 42) ; display: inline ; float: none&quot;&gt;buildStatementFromContext()&lt;/span&gt;" style="edgeStyle=orthogonalEdgeStyle;rounded=0;orthogonalLoop=1;jettySize=auto;html=1;exitX=0.5;exitY=1;exitDx=0;exitDy=0;entryX=0.5;entryY=0;entryDx=0;entryDy=0;fontSize=12;" edge="1" parent="1" source="38" target="41">
                    <mxGeometry relative="1" as="geometry"/>
                </mxCell>
                <mxCell id="38" value="XMLMapperBuilder&lt;br&gt;cacheElement：根据cache标签，创建二级缓存容器&lt;br&gt;buildStatementFromContext()：解析配置中增删改查标签，创建mappedStatement对象" style="rounded=0;whiteSpace=wrap;html=1;fontSize=12;" vertex="1" parent="1">
                    <mxGeometry x="370" y="762" width="400" height="88" as="geometry"/>
                </mxCell>
                <mxCell id="41" value="XMLStatementBuilder&lt;br&gt;解析每个select | update | delete | insert 标签，创建mappedStatement" style="rounded=0;whiteSpace=wrap;html=1;fontSize=12;" vertex="1" parent="1">
                    <mxGeometry x="370" y="920" width="400" height="70" as="geometry"/>
                </mxCell>
                <mxCell id="46" value="&lt;span&gt;MappedStatement&lt;br&gt;String id：全局唯一的statementId，唯一标志&lt;br&gt;Cache cache：二级缓存容器引用&lt;br&gt;SqlSource sqlSource：sql解析结果，通过getBoundSql()获取解析后sql，参数使用 ? 占位符替换&lt;br&gt;&lt;/span&gt;" style="rounded=0;whiteSpace=wrap;html=1;fontSize=12;" vertex="1" parent="1">
                    <mxGeometry x="-60" y="1060" width="830" height="90" as="geometry"/>
                </mxCell>
                <mxCell id="62" style="edgeStyle=orthogonalEdgeStyle;rounded=0;orthogonalLoop=1;jettySize=auto;html=1;exitX=0.5;exitY=1;exitDx=0;exitDy=0;entryX=0.5;entryY=0;entryDx=0;entryDy=0;fontSize=12;" edge="1" parent="1" source="58" target="59">
                    <mxGeometry relative="1" as="geometry"/>
                </mxCell>
                <mxCell id="58" value="SqlSession&lt;br&gt;Configuration configuration：全局配置对象&lt;br&gt;Executer executer：JDBC执行器" style="rounded=0;whiteSpace=wrap;html=1;fontSize=12;" vertex="1" parent="1">
                    <mxGeometry x="1100" y="410" width="403" height="100" as="geometry"/>
                </mxCell>
                <mxCell id="67" value="委托进行JDBC操作" style="edgeStyle=orthogonalEdgeStyle;rounded=0;orthogonalLoop=1;jettySize=auto;html=1;exitX=0.5;exitY=1;exitDx=0;exitDy=0;entryX=0.5;entryY=0;entryDx=0;entryDy=0;fontSize=12;" edge="1" parent="1" source="59" target="66">
                    <mxGeometry relative="1" as="geometry"/>
                </mxCell>
                <mxCell id="59" value="Executer：执行器，进行JDBC操作的对象&lt;br&gt;默认为SimpleExecuter，当开启二级缓存时，使用CachingExecuter进行包装&lt;br&gt;PerpetualCache localCache：一级缓存容器&lt;br&gt;Configuration configuration：全局配置对象" style="rounded=0;whiteSpace=wrap;html=1;fontSize=12;" vertex="1" parent="1">
                    <mxGeometry x="1032.25" y="570" width="538.5" height="95.5" as="geometry"/>
                </mxCell>
                <mxCell id="73" style="edgeStyle=orthogonalEdgeStyle;rounded=0;orthogonalLoop=1;jettySize=auto;html=1;exitX=0.25;exitY=1;exitDx=0;exitDy=0;entryX=0.75;entryY=0;entryDx=0;entryDy=0;fontSize=12;" edge="1" parent="1" source="64" target="70">
                    <mxGeometry relative="1" as="geometry"/>
                </mxCell>
                <mxCell id="74" value="进行结果集解析后&lt;br&gt;返回最终结果" style="edgeStyle=orthogonalEdgeStyle;rounded=0;orthogonalLoop=1;jettySize=auto;html=1;exitX=0.75;exitY=0;exitDx=0;exitDy=0;entryX=0.928;entryY=1.025;entryDx=0;entryDy=0;entryPerimeter=0;fontSize=12;" edge="1" parent="1" source="64" target="66">
                    <mxGeometry relative="1" as="geometry"/>
                </mxCell>
                <mxCell id="64" value="ResultSetHandler：结果集处理器" style="rounded=0;whiteSpace=wrap;html=1;fontSize=12;" vertex="1" parent="1">
                    <mxGeometry x="1410" y="990" width="300" height="70" as="geometry"/>
                </mxCell>
                <mxCell id="69" value="&lt;span style=&quot;color: rgb(240 , 240 , 240) ; font-family: &amp;#34;helvetica&amp;#34; ; font-size: 12px ; font-style: normal ; font-weight: 400 ; letter-spacing: normal ; text-align: center ; text-indent: 0px ; text-transform: none ; word-spacing: 0px ; background-color: rgb(42 , 42 , 42) ; display: inline ; float: none&quot;&gt;使用TypeHandler进行参数类型处理后&lt;br&gt;进行参数设置&lt;/span&gt;" style="edgeStyle=orthogonalEdgeStyle;rounded=0;orthogonalLoop=1;jettySize=auto;html=1;entryX=0.352;entryY=1.017;entryDx=0;entryDy=0;entryPerimeter=0;fontSize=12;exitX=0.75;exitY=0;exitDx=0;exitDy=0;" edge="1" parent="1" source="65" target="66">
                    <mxGeometry relative="1" as="geometry"/>
                </mxCell>
                <mxCell id="71" style="edgeStyle=orthogonalEdgeStyle;rounded=0;orthogonalLoop=1;jettySize=auto;html=1;exitX=0.5;exitY=1;exitDx=0;exitDy=0;entryX=0.25;entryY=0;entryDx=0;entryDy=0;fontSize=12;" edge="1" parent="1" source="65" target="70">
                    <mxGeometry relative="1" as="geometry"/>
                </mxCell>
                <mxCell id="65" value="ParameterHandler：参数处理器&lt;br&gt;" style="rounded=0;whiteSpace=wrap;html=1;fontSize=12;" vertex="1" parent="1">
                    <mxGeometry x="900" y="990" width="380" height="70" as="geometry"/>
                </mxCell>
                <mxCell id="68" value="&lt;span style=&quot;color: rgb(240 , 240 , 240) ; font-family: &amp;#34;helvetica&amp;#34; ; font-size: 12px ; font-style: normal ; font-weight: 400 ; letter-spacing: normal ; text-align: center ; text-indent: 0px ; text-transform: none ; word-spacing: 0px ; background-color: rgb(42 , 42 , 42) ; display: inline ; float: none&quot;&gt;获取数据库连接&lt;br&gt;进行sql预编译&lt;/span&gt;" style="edgeStyle=orthogonalEdgeStyle;rounded=0;orthogonalLoop=1;jettySize=auto;html=1;fontSize=12;exitX=0.089;exitY=1.033;exitDx=0;exitDy=0;exitPerimeter=0;entryX=0.213;entryY=0;entryDx=0;entryDy=0;entryPerimeter=0;" edge="1" parent="1" source="66" target="65">
                    <mxGeometry relative="1" as="geometry">
                        <mxPoint x="981" y="980" as="targetPoint"/>
                    </mxGeometry>
                </mxCell>
                <mxCell id="72" value="参数设置后&lt;br&gt;执行后获取结果" style="edgeStyle=orthogonalEdgeStyle;rounded=0;orthogonalLoop=1;jettySize=auto;html=1;entryX=0.25;entryY=0;entryDx=0;entryDy=0;fontSize=12;exitX=0.735;exitY=1.042;exitDx=0;exitDy=0;exitPerimeter=0;" edge="1" parent="1" source="66" target="64">
                    <mxGeometry relative="1" as="geometry"/>
                </mxCell>
                <mxCell id="66" value="StatementHandler：JDBC操作的执行者&lt;br&gt;ParameterHandler parameterHandler：参数处理器&lt;br&gt;ResultSetHandler resultSetHandler：结果集处理器" style="rounded=0;whiteSpace=wrap;html=1;fontSize=12;" vertex="1" parent="1">
                    <mxGeometry x="911.5" y="730" width="780" height="120" as="geometry"/>
                </mxCell>
                <mxCell id="70" value="TypeHandler：类型处理器&lt;br&gt;处理JAVA类型与数据库字段类型映射" style="rounded=0;whiteSpace=wrap;html=1;fontSize=12;" vertex="1" parent="1">
                    <mxGeometry x="1106.5" y="1120" width="390" height="90" as="geometry"/>
                </mxCell>
            </root>
        </mxGraphModel>
    </diagram>
</mxfile>